<svg width="32" height="32" viewBox="0 0 32 32" fill="none" xmlns="http://www.w3.org/2000/svg">
<path d="M20.0276 22.129H30.4444V25.4475H19.8856L23.9849 29.4935L21.6247 31.8537L17.6852 27.8964V31.9602H14.3844V27.8254L10.3739 31.8715L8.01369 29.4758L12.0597 25.4652H1.62519V22.1468H11.8113C8.26213 18.6153 4.73071 15.0839 1.21704 11.5703L3.63047 9.17458C7.16189 12.7237 10.7288 16.2906 14.2957 19.8576C14.3134 19.8576 14.3489 19.8221 14.3667 19.8043V0H17.6852V19.7866L28.3326 9.13909L30.6928 11.4815C27.1614 15.013 23.63 18.5266 20.0453 22.1113L20.0276 22.129Z" fill="white"/>
</svg>
