<svg width="279" height="299" viewBox="0 0 279 299" fill="none" xmlns="http://www.w3.org/2000/svg">
<path d="M266.045 69.9769C261.281 49.1178 248.33 3.28496 222.75 0.232271C180.068 -4.86567 175.036 75.4147 160.074 97.4754C155.583 104.091 147.384 107.392 139.137 107.35C130.902 107.386 122.704 104.085 118.225 97.4754C103.25 75.4147 98.2181 -4.86567 55.5306 0.232271C29.9508 3.29103 16.9938 49.1178 12.2291 69.9769C-15.0279 189.354 -6.3069 298.638 139.162 298.371C284.581 298.625 293.296 189.348 266.045 69.9769ZM104.004 231.157C103.767 231.691 103.493 232.194 103.202 232.68C103.189 232.692 103.183 232.71 103.171 232.722C102.685 233.53 102.15 234.252 101.628 234.883C99.7253 237.329 96.9358 240.145 92.9977 242.154C84.07 246.699 78.4484 242.663 69.2958 245.795C57.3902 249.873 56.2659 261.769 51.1488 260.773C47.1377 259.99 44.9984 247.786 40.7321 223.34C40.3796 221.331 40.1669 220.063 39.9603 218.454C39.1702 212.319 38.8785 204.811 38.836 204.362C38.836 204.344 38.8177 204.198 38.8117 203.998C38.8117 203.937 38.8117 203.871 38.8056 203.804C38.7995 203.464 38.8056 203.124 38.8117 202.796C38.8117 202.79 38.8117 202.778 38.8117 202.772C39.4255 183.012 68.8947 183.424 69.3445 186.92C60.8057 195.568 61.1096 228.444 75.6224 229.366C89.0352 230.222 90.6761 204.738 88.6219 195.404C101.682 207.706 108.13 221.938 104.004 231.163V231.157ZM139.149 260.603C135.448 259.808 126.344 253.011 126.35 250.201C126.363 246.22 132.871 244.83 139.162 244.745C145.446 244.83 151.936 246.22 151.948 250.201C151.954 253.017 142.844 259.814 139.149 260.603ZM239.463 203.998C239.451 204.198 239.438 204.338 239.438 204.362C239.396 204.811 239.098 212.325 238.314 218.454C238.108 220.063 237.895 221.331 237.542 223.34C233.276 247.786 231.137 259.99 227.126 260.773C222.008 261.769 220.89 249.873 208.985 245.795C199.832 242.663 194.211 246.699 185.289 242.154C181.351 240.151 178.561 237.329 176.659 234.883C176.136 234.252 175.608 233.53 175.121 232.722C175.109 232.71 175.103 232.692 175.091 232.68C174.799 232.201 174.526 231.691 174.289 231.157C170.162 221.932 176.604 207.7 189.665 195.398C187.61 204.732 189.251 230.216 202.664 229.36C217.171 228.438 217.475 195.562 208.942 186.914C209.392 183.418 238.855 183.005 239.469 202.766C239.469 202.772 239.469 202.784 239.469 202.79C239.481 203.124 239.481 203.458 239.475 203.798C239.475 203.871 239.475 203.937 239.469 203.992L239.463 203.998Z" fill="#000000"/>
</svg>
